<svg width="175" height="56" viewBox="0 0 175 56" fill="none" xmlns="http://www.w3.org/2000/svg">
<rect width="175" height="56" rx="28" fill="#006096"/>
<path d="M50.9439 42.5C50.3723 42.5 49.8173 42.3075 49.3685 41.9535L34.4882 30.2169C33.211 29.2095 33.1944 27.2786 34.4542 26.2495L49.359 14.0738C49.8133 13.7027 50.3818 13.5 50.9684 13.5H57.728C59.8178 13.5 61.0161 15.8801 59.7715 17.5589L52.9852 26.7125C52.3086 27.6251 52.3192 28.8757 53.0111 29.7768L59.6378 38.4069C60.9225 40.0801 59.7297 42.5 57.6201 42.5H50.9439Z" fill="white"/>
<path d="M77.3203 34V22.7266H81.8516C83.9688 22.7266 85.2422 23.8047 85.2422 25.5312V25.5469C85.2422 26.7188 84.375 27.7734 83.2656 27.9609V28.0938C84.7891 28.2578 85.8047 29.3359 85.8047 30.8047V30.8203C85.8047 32.7969 84.3594 34 81.9531 34H77.3203ZM81.4453 24.1562H79.0703V27.5234H81.1484C82.6953 27.5234 83.5 26.9453 83.5 25.8516V25.8359C83.5 24.7734 82.7422 24.1562 81.4453 24.1562ZM81.5 28.8594H79.0703V32.5703H81.6016C83.1797 32.5703 84.0156 31.9219 84.0156 30.7109V30.6953C84.0156 29.4844 83.1484 28.8594 81.5 28.8594ZM91.4219 34.1641C88.9375 34.1641 87.4375 32.4688 87.4375 29.7812V29.7734C87.4375 27.125 88.9688 25.3516 91.3359 25.3516C93.7031 25.3516 95.1562 27.0625 95.1562 29.6094V30.2031H89.1406C89.1719 31.8281 90.0625 32.7734 91.4609 32.7734C92.5469 32.7734 93.1953 32.2344 93.3984 31.7969L93.4297 31.7344L95.0625 31.7266L95.0469 31.7969C94.7656 32.9141 93.5938 34.1641 91.4219 34.1641ZM91.3438 26.7422C90.1875 26.7422 89.3125 27.5312 89.1641 28.9922H93.4766C93.3438 27.4766 92.4922 26.7422 91.3438 26.7422ZM100.258 34.1641C98.2109 34.1641 96.9141 33.2031 96.75 31.7812V31.7734H98.4453L98.4531 31.7812C98.6641 32.4219 99.2812 32.8516 100.289 32.8516C101.336 32.8516 102.062 32.375 102.062 31.6797V31.6641C102.062 31.1328 101.664 30.7734 100.68 30.5469L99.3281 30.2344C97.7266 29.8672 96.9844 29.1406 96.9844 27.8984V27.8906C96.9844 26.4141 98.3594 25.3516 100.281 25.3516C102.219 25.3516 103.461 26.3203 103.609 27.7031V27.7109H101.992V27.6953C101.828 27.1016 101.227 26.6562 100.273 26.6562C99.3438 26.6562 98.6719 27.1172 98.6719 27.7969V27.8125C98.6719 28.3438 99.0625 28.6719 100.016 28.8984L101.359 29.2031C102.992 29.5859 103.773 30.2812 103.773 31.5078V31.5234C103.773 33.0938 102.273 34.1641 100.258 34.1641ZM108.938 34.0547C107.07 34.0547 106.305 33.3984 106.305 31.7656V26.8516H104.977V25.5156H106.305V23.375H108.031V25.5156H109.852V26.8516H108.031V31.3594C108.031 32.2734 108.375 32.6484 109.211 32.6484C109.469 32.6484 109.617 32.6406 109.852 32.6172V33.9688C109.578 34.0156 109.266 34.0547 108.938 34.0547ZM114.094 34L111.055 22.7266H112.875L114.945 31.4922H115.055L117.406 22.7266H119.031L121.398 31.4922H121.508L123.57 22.7266H125.391L122.344 34H120.695L118.273 25.5703H118.164L115.75 34H114.094ZM128.781 34.1406C127.164 34.1406 125.969 33.1562 125.969 31.6172V31.6016C125.969 30.0859 127.109 29.2031 129.133 29.0781L131.43 28.9453V28.1953C131.43 27.2656 130.844 26.75 129.695 26.75C128.758 26.75 128.141 27.0938 127.938 27.6953L127.93 27.7266H126.297L126.305 27.6719C126.508 26.2812 127.844 25.3516 129.773 25.3516C131.906 25.3516 133.109 26.4141 133.109 28.1953V34H131.43V32.7969H131.297C130.797 33.6562 129.906 34.1406 128.781 34.1406ZM127.656 31.5469C127.656 32.3281 128.32 32.7891 129.234 32.7891C130.5 32.7891 131.43 31.9609 131.43 30.8672V30.1406L129.359 30.2734C128.188 30.3438 127.656 30.7656 127.656 31.5312V31.5469ZM136.047 36.9844C135.836 36.9844 135.586 36.9688 135.367 36.9453V35.6094C135.531 35.6328 135.742 35.6406 135.938 35.6406C136.727 35.6406 137.203 35.3047 137.453 34.4453L137.578 34.0078L134.5 25.5156H136.328L138.453 32.2969H138.602L140.719 25.5156H142.5L139.344 34.3281C138.625 36.3516 137.766 36.9844 136.047 36.9844Z" fill="white"/>
</svg>
