<svg xmlns:dc="http://purl.org/dc/elements/1.1/" xmlns:cc="http://creativecommons.org/ns#" xmlns:rdf="http://www.w3.org/1999/02/22-rdf-syntax-ns#" xmlns:svg="http://www.w3.org/2000/svg" xmlns="http://www.w3.org/2000/svg" viewBox="1041.9910888671875 139.7314910888672 283.4552001953125 217.58189392089844" height="109" width="142" xml:space="preserve" id="svg2" version="1.1" style=""><metadata id="metadata8"><rdf:rdf><cc:work rdf:about=""><dc:format>image/svg+xml</dc:format><dc:type rdf:resource="http://purl.org/dc/dcmitype/StillImage"/></cc:work></rdf:rdf></metadata><defs id="defs6"><clipPath id="clipPath20" clipPathUnits="userSpaceOnUse"><path id="path18" d="M 0,595.28 H 1190.55 V 0 H 0 Z"/></clipPath></defs><g transform="matrix(1.3333333,0,0,-1.3333333,0,793.70667)" id="g10"><path id="path12" style="fill:#1f3a58;fill-opacity:1;fill-rule:nonzero;stroke:none" d="M 0,0.002 H 595.275 V 595.278 L 0,595.278 Z"/><g id="g14"><g clip-path="url(#clipPath20)" id="g16"><g transform="translate(219.1405,350.9214)" id="g22"><path id="path24" style="fill:#ffffff;fill-opacity:1;fill-rule:nonzero;stroke:none" d="m 0,0 c 0,0.527 -0.133,0.922 -0.527,1.317 -0.265,0.264 -0.658,0.395 -1.185,0.527 v -9.351 c 0.131,0 0.395,0.132 0.527,0.132 0.263,0.132 0.393,0.264 0.526,0.395 0.132,0.132 0.264,0.264 0.396,0.527 0.13,0.264 0.13,0.395 0.13,0.659 V 0 Z M -4.083,1.844 C -4.61,1.712 -5.005,1.581 -5.4,1.317 -5.664,0.922 -5.796,0.527 -5.796,0 v -5.794 c 0,-0.264 0,-0.527 0.132,-0.791 0.133,-0.263 0.264,-0.395 0.395,-0.526 0.132,-0.132 0.397,-0.264 0.527,-0.396 0.264,-0.131 0.395,-0.131 0.659,-0.131 z m 6.19,-7.375 C 2.107,-6.189 1.976,-6.716 1.712,-7.243 1.449,-7.77 1.184,-8.034 0.79,-8.429 0.395,-8.692 0,-8.956 -0.395,-9.219 -0.792,-9.351 -1.317,-9.482 -1.844,-9.482 v -1.186 h -2.239 v 1.186 c -0.659,0.131 -1.317,0.263 -1.843,0.526 -0.528,0.264 -0.922,0.527 -1.187,0.922 -0.263,0.396 -0.525,0.791 -0.658,1.318 -0.131,0.527 -0.264,1.053 -0.264,1.712 v 4.872 c 0,0.659 0.133,1.186 0.397,1.713 0.131,0.395 0.525,0.79 0.79,1.053 0.394,0.396 0.789,0.527 1.317,0.791 0.526,0.263 0.921,0.263 1.448,0.263 v 0.79 h 2.371 v -0.79 c 0.527,0 0.92,-0.132 1.449,-0.263 C 0.132,3.293 0.526,3.03 0.921,2.634 1.317,2.371 1.579,1.844 1.843,1.449 2.107,0.922 2.238,0.395 2.238,-0.263 v -5.268 z"/></g><g transform="translate(230.5978,351.7116)" id="g26"><path id="path28" style="fill:#ffffff;fill-opacity:1;fill-rule:nonzero;stroke:none" d="m 0,0 c 0,0.395 -0.132,0.79 -0.263,1.185 -0.132,0.396 -0.527,0.527 -1.054,0.527 -0.262,0 -0.526,0 -0.659,-0.131 C -2.238,1.317 -2.371,1.185 -2.371,0.922 -2.501,0.79 -2.501,0.527 -2.501,0.263 v -0.658 -7.639 c 0,-0.395 0.13,-0.79 0.263,-1.053 0.131,-0.264 0.526,-0.527 1.054,-0.527 0.525,0 0.789,0.132 1.052,0.527 0.265,0.263 0.265,0.658 0.265,1.185 l 0,7.902 z m 2.371,-7.507 c 0,-1.317 -0.264,-2.371 -0.922,-3.029 -0.659,-0.659 -1.581,-1.054 -2.766,-1.054 -1.316,0 -2.238,0.264 -2.766,0.922 -0.526,0.659 -0.921,1.581 -0.921,2.766 v 7.639 c 0,0.526 0.132,1.185 0.262,1.58 0.133,0.527 0.397,0.922 0.659,1.317 0.263,0.395 0.658,0.659 1.186,0.791 0.526,0.131 1.054,0.263 1.713,0.263 0.658,0 1.317,-0.132 1.711,-0.263 0.395,0 0.79,-0.264 1.054,-0.659 C 1.844,2.371 2.107,1.976 2.239,1.449 2.371,0.922 2.371,0.395 2.371,-0.263 Z"/></g><g transform="translate(242.4515,340.2538)" id="g30"><path id="path32" style="fill:#ffffff;fill-opacity:1;fill-rule:nonzero;stroke:none" d="M 0,0 V 6.585 H -2.766 V 0 h -2.239 v 15.145 h 2.371 V 8.824 h 2.766 v 6.321 H 2.501 L 2.501,0 Z"/></g><g transform="translate(252.5917,346.1804)" id="g34"><path id="path36" style="fill:#ffffff;fill-opacity:1;fill-rule:nonzero;stroke:none" d="M 0,0 C 0,-0.922 -0.132,-1.581 -0.132,-2.239 -0.263,-2.898 -0.395,-3.425 -0.659,-3.82 H 2.634 V 6.98 H 0.263 Z m -2.107,-5.926 v -2.898 h -1.976 v 4.872 l 0.923,0.132 c 0.394,0.395 0.659,0.922 0.789,1.449 0.133,0.527 0.264,1.317 0.264,2.239 l 0.264,9.219 H 5.005 V -3.952 H 5.927 V -8.956 H 3.952 v 2.898 h -6.059 z"/></g><g transform="translate(272.7422,355.5309)" id="g38"><path id="path40" style="fill:#ffffff;fill-opacity:1;fill-rule:nonzero;stroke:none" d="m 0,0 c 0.659,0 1.184,-0.132 1.581,-0.263 0.395,-0.132 0.79,-0.396 1.185,-0.659 0.263,-0.263 0.527,-0.659 0.659,-1.054 0.13,-0.395 0.263,-0.922 0.263,-1.449 L 1.449,-3.952 c 0,0.527 -0.132,1.054 -0.265,1.318 -0.262,0.395 -0.525,0.527 -1.052,0.527 -0.264,0 -0.527,0 -0.659,-0.132 -0.132,-0.132 -0.263,-0.264 -0.395,-0.395 -0.132,-0.132 -0.132,-0.395 -0.132,-0.527 v -0.659 -7.638 -0.527 c 0,-0.132 0.132,-0.395 0.132,-0.527 0.132,-0.132 0.263,-0.263 0.395,-0.395 0.132,-0.132 0.395,-0.132 0.659,-0.132 0.922,0 1.317,0.659 1.317,1.844 0.394,-0.131 0.789,-0.131 1.185,-0.131 0.395,0 0.791,-0.132 1.186,-0.132 0,-1.186 -0.395,-2.108 -0.923,-2.766 -0.659,-0.658 -1.448,-1.053 -2.634,-1.053 -1.317,0 -2.239,0.264 -2.764,0.921 -0.659,0.659 -0.924,1.581 -0.924,2.766 v 7.507 c 0,0.527 0,1.054 0.132,1.58 0.133,0.527 0.396,0.922 0.659,1.318 0.263,0.395 0.658,0.658 1.185,0.922 C -1.317,-0.132 -0.79,0 0,0"/></g><g transform="translate(285.122,351.7116)" id="g42"><path id="path44" style="fill:#ffffff;fill-opacity:1;fill-rule:nonzero;stroke:none" d="m 0,0 c 0,0.395 -0.132,0.79 -0.263,1.185 -0.132,0.396 -0.527,0.527 -1.054,0.527 -0.264,0 -0.526,0 -0.659,-0.131 L -2.371,1.185 C -2.501,1.054 -2.501,0.79 -2.634,0.527 V -0.132 -7.77 c 0,-0.395 0.133,-0.79 0.263,-1.054 0.264,-0.263 0.528,-0.527 1.054,-0.527 0.527,0 0.79,0.132 1.054,0.527 C 0,-8.56 0,-8.165 0,-7.638 Z m 2.371,-7.507 c 0,-1.317 -0.264,-2.371 -0.922,-3.029 -0.659,-0.659 -1.581,-1.054 -2.766,-1.054 -1.317,0 -2.238,0.264 -2.766,0.922 -0.526,0.659 -0.922,1.581 -0.922,2.766 v 7.639 c 0,0.526 0.133,1.185 0.263,1.58 0.133,0.527 0.395,0.922 0.659,1.317 0.264,0.395 0.658,0.659 1.186,0.791 0.526,0.131 1.054,0.263 1.713,0.263 0.657,0 1.316,-0.132 1.711,-0.263 C 1.054,3.293 1.317,3.029 1.712,2.634 1.976,2.239 2.239,1.844 2.371,1.317 v -1.449 z"/></g><g transform="translate(295.131,346.1804)" id="g46"><path id="path48" style="fill:#ffffff;fill-opacity:1;fill-rule:nonzero;stroke:none" d="M 0,0 C 0,-0.922 -0.132,-1.581 -0.132,-2.239 -0.263,-2.898 -0.395,-3.425 -0.659,-3.82 H 2.634 V 6.98 H 0.263 Z m -2.107,-5.926 v -2.898 h -1.976 v 4.872 l 0.922,0.132 c 0.395,0.395 0.658,0.922 0.79,1.449 0.133,0.527 0.264,1.317 0.264,2.239 l 0.264,9.219 H 5.005 V -3.952 H 5.926 V -8.956 H 3.952 v 2.898 h -6.059 z"/></g><g transform="translate(304.8776,340.2538)" id="g50"><path id="path52" style="fill:#ffffff;fill-opacity:1;fill-rule:nonzero;stroke:none" d="M 0,0 V 15.145 H 6.716 V 12.907 H 2.37 V 8.824 H 6.189 V 6.585 H 2.37 V 2.239 H 6.716 V 0 Z"/></g><g transform="translate(318.0472,358.8235)" id="g54"><path id="path56" style="fill:#ffffff;fill-opacity:1;fill-rule:nonzero;stroke:none" d="m 0,0 c 0,-0.132 0,-0.263 0.132,-0.527 0.131,-0.132 0.131,-0.263 0.263,-0.527 0.131,-0.131 0.264,-0.263 0.395,-0.395 0.132,-0.132 0.394,-0.132 0.527,-0.132 0.264,0 0.395,0 0.526,0.132 0.133,0.132 0.264,0.264 0.395,0.395 0.133,0.132 0.265,0.264 0.265,0.527 0,0.132 0.131,0.264 0.131,0.527 L 4.347,0 C 4.347,-0.263 4.214,-0.659 4.083,-1.054 4.214,-1.317 3.95,-1.712 3.688,-1.976 3.425,-2.239 3.161,-2.503 2.766,-2.766 2.371,-2.898 1.976,-3.029 1.449,-3.029 c -0.527,0 -1.054,0.131 -1.449,0.263 -0.395,0.132 -0.659,0.395 -0.922,0.79 -0.262,0.264 -0.395,0.659 -0.527,0.922 -0.132,0.395 -0.263,0.791 -0.263,1.054 z m 2.897,-9.087 -3.16,-9.483 h -2.238 v 15.145 h 2.238 v -9.614 l 3.16,9.614 h 2.24 V -18.57 H 2.766 Z"/></g><g transform="translate(331.3493,355.5309)" id="g58"><path id="path60" style="fill:#ffffff;fill-opacity:1;fill-rule:nonzero;stroke:none" d="m 0,0 c 0.659,0 1.184,-0.132 1.579,-0.263 0.396,-0.132 0.792,-0.396 1.187,-0.659 0.263,-0.263 0.526,-0.659 0.659,-1.054 0.13,-0.395 0.262,-0.922 0.262,-1.449 L 1.449,-3.952 c 0,0.527 -0.132,1.054 -0.265,1.318 -0.263,0.395 -0.525,0.527 -1.052,0.527 -0.265,0 -0.527,0 -0.659,-0.132 -0.132,-0.132 -0.265,-0.264 -0.395,-0.395 -0.132,-0.132 -0.132,-0.395 -0.132,-0.527 v -0.659 -7.638 -0.527 c 0,-0.132 0.132,-0.395 0.132,-0.527 0.13,-0.132 0.263,-0.263 0.395,-0.395 0.132,-0.132 0.394,-0.132 0.659,-0.132 0.922,0 1.317,0.659 1.317,1.844 0.394,-0.131 0.789,-0.131 1.184,-0.131 0.396,0 0.792,-0.132 1.187,-0.132 0,-1.186 -0.395,-2.108 -0.923,-2.766 -0.659,-0.658 -1.448,-1.053 -2.635,-1.053 -1.316,0 -2.238,0.264 -2.765,0.921 -0.657,0.659 -0.922,1.581 -0.922,2.766 v 7.507 c 0,0.527 0,1.054 0.132,1.58 0.133,0.527 0.395,0.922 0.659,1.318 0.263,0.395 0.658,0.658 1.184,0.922 C -1.317,-0.132 -0.659,0 0,0"/></g><g transform="translate(342.6755,353.1605)" id="g62"><path id="path64" style="fill:#ffffff;fill-opacity:1;fill-rule:nonzero;stroke:none" d="M 0,0 V -12.907 H -2.371 V 0 H -4.872 V 2.239 H 2.371 L 2.371,0 Z"/></g><g transform="translate(353.7381,345.1266)" id="g66"><path id="path68" style="fill:#ffffff;fill-opacity:1;fill-rule:nonzero;stroke:none" d="m 0,0 c 0,0.659 -0.132,1.185 -0.395,1.581 -0.264,0.395 -0.659,0.526 -1.317,0.526 h -0.922 v -4.741 h 0.922 c 0.395,0 0.658,0.131 0.922,0.263 0.263,0.132 0.395,0.264 0.527,0.527 C -0.132,-1.581 0,-1.317 0,-1.054 Z m -0.132,6.058 c 0,0.658 -0.131,1.185 -0.395,1.449 -0.263,0.263 -0.79,0.395 -1.316,0.395 h -0.791 v -3.95 h 0.791 c 0.658,0 1.053,0.131 1.316,0.526 0.264,0.526 0.395,1.053 0.395,1.58 M 0.526,3.029 C 1.184,2.766 1.712,2.371 1.843,1.844 2.107,1.185 2.238,0.527 2.238,-0.263 c 0,-1.581 -0.395,-2.766 -1.054,-3.425 -0.658,-0.79 -1.711,-1.054 -3.16,-1.054 h -3.161 v 15.015 h 3.294 c 1.316,0 2.369,-0.395 2.897,-1.054 C 1.712,8.56 1.976,7.507 1.976,6.189 1.976,5.531 1.843,4.872 1.581,4.347 1.581,3.82 1.054,3.425 0.526,3.029"/></g><g transform="translate(365.8541,349.7363)" id="g70"><path id="path72" style="fill:#ffffff;fill-opacity:1;fill-rule:nonzero;stroke:none" d="M 0,0 -3.16,-9.482 H -5.399 V 5.663 h 2.239 v -9.615 h 0.13 L 0.133,5.663 H 2.371 V -9.482 H 0 Z"/></g><g transform="translate(376.7853,353.1605)" id="g74"><path id="path76" style="fill:#ffffff;fill-opacity:1;fill-rule:nonzero;stroke:none" d="m 0,0 c -0.659,0 -1.184,-0.263 -1.449,-0.659 -0.263,-0.395 -0.394,-0.922 -0.394,-1.712 0,-0.79 0.131,-1.185 0.526,-1.581 C -0.922,-4.215 -0.526,-4.347 0,-4.347 H 0.922 V 0 Z m -4.609,-12.907 0.79,4.742 c 0.131,0.527 0.264,0.922 0.526,1.317 0.263,0.395 0.527,0.79 0.922,0.922 -0.659,0.263 -1.184,0.79 -1.448,1.317 -0.264,0.526 -0.395,1.316 -0.395,2.106 0,1.449 0.395,2.635 1.054,3.425 0.659,0.79 1.711,1.185 3.028,1.185 H 3.293 V -13.039 H 0.922 v 6.586 H 0.263 c -0.395,0 -0.789,-0.132 -1.185,-0.527 -0.395,-0.263 -0.527,-0.922 -0.79,-1.712 l -0.659,-4.215 z"/></g><g transform="translate(218.2182,327.7422)" id="g78"><path id="path80" style="fill:#ffffff;fill-opacity:1;fill-rule:nonzero;stroke:none" d="M 0,0 -3.95,-11.722 H -6.716 V 6.98 H -3.82 V -4.872 h 0.132 L 0.263,6.98 H 3.16 V -11.722 H 0.132 Z"/></g><g transform="translate(235.4706,316.0209)" id="g82"><path id="path84" style="fill:#ffffff;fill-opacity:1;fill-rule:nonzero;stroke:none" d="M 0,0 V 8.165 H -3.292 V 0 h -2.897 v 18.701 h 2.897 v -7.77 h 3.425 v 7.77 H 3.029 L 3.029,0 Z"/></g><g transform="translate(252.8554,316.0209)" id="g86"><path id="path88" style="fill:#ffffff;fill-opacity:1;fill-rule:nonzero;stroke:none" d="M 0,0 V 8.165 H -3.425 V 0 h -2.896 v 18.701 h 2.896 v -7.77 H 0 v 7.77 H 2.897 V 0 Z"/></g><g transform="translate(269.9767,330.1129)" id="g90"><path id="path92" style="fill:#ffffff;fill-opacity:1;fill-rule:nonzero;stroke:none" d="M 0,0 C 0,0.527 -0.132,0.922 -0.395,1.449 -0.659,1.844 -1.054,2.107 -1.712,2.107 -2.107,2.107 -2.371,1.976 -2.501,1.844 -2.766,1.712 -2.898,1.449 -3.03,1.317 -3.16,1.054 -3.293,0.79 -3.293,0.527 -3.293,0.263 -3.425,0 -3.425,-0.263 v -9.483 c 0,-0.527 0.132,-0.922 0.395,-1.317 0.264,-0.395 0.659,-0.527 1.318,-0.527 0.658,0 1.053,0.264 1.317,0.659 0.263,0.395 0.395,0.922 0.395,1.449 z m 2.897,-9.351 c 0,-1.58 -0.396,-2.897 -1.054,-3.688 -0.789,-0.79 -1.843,-1.185 -3.555,-1.185 -1.581,0 -2.766,0.395 -3.425,1.185 -0.659,0.791 -1.052,1.976 -1.052,3.425 v 9.351 c 0,0.79 0.13,1.448 0.263,1.975 0.13,0.659 0.395,1.186 0.789,1.581 0.395,0.395 0.79,0.79 1.449,1.052 0.528,0.264 1.317,0.396 2.107,0.396 C -0.659,4.741 0,4.609 0.659,4.345 1.184,4.083 1.712,3.82 2.107,3.425 2.501,3.029 2.766,2.503 2.897,1.844 3.029,1.185 3.16,0.527 3.16,-0.263 v -9.088 z"/></g><g transform="translate(287.0978,321.9474)" id="g94"><path id="path96" style="fill:#ffffff;fill-opacity:1;fill-rule:nonzero;stroke:none" d="m 0,0 c 0,0.922 -0.133,1.581 -0.527,1.976 -0.265,0.395 -0.922,0.658 -1.712,0.658 h -1.054 v -5.795 h 1.186 c 0.526,0 0.79,0.132 1.185,0.263 0.263,0.132 0.527,0.395 0.659,0.659 C -0.133,-1.976 0,-1.581 0,-1.185 Z m -0.133,7.638 c 0,0.922 -0.13,1.449 -0.526,1.844 -0.395,0.396 -0.922,0.527 -1.712,0.527 H -3.293 V 5.267 h 0.922 c 0.79,0 1.317,0.264 1.712,0.659 0.396,0.263 0.526,0.922 0.526,1.712 M 0.659,3.82 C 1.449,3.555 2.107,3.03 2.371,2.239 2.633,1.449 2.897,0.659 2.897,-0.395 2.897,-2.371 2.501,-3.82 1.579,-4.742 0.79,-5.663 -0.527,-6.058 -2.239,-6.058 h -3.95 v 18.833 h 4.082 c 1.712,0 2.897,-0.395 3.556,-1.317 C 2.238,10.536 2.633,9.351 2.633,7.638 2.633,6.716 2.501,6.058 2.238,5.399 1.976,4.741 1.449,4.214 0.659,3.952 Z"/></g><g transform="translate(302.1119,330.3762)" id="g98"><path id="path100" style="fill:#ffffff;fill-opacity:1;fill-rule:nonzero;stroke:none" d="M 0,0 C -0.133,-1.317 -0.396,-2.634 -0.527,-3.82 -0.792,-5.136 -0.922,-6.453 -1.185,-7.77 H 1.449 L 0.262,0 Z m 2.633,-14.355 -0.79,3.951 h -3.424 c -0.131,-0.659 -0.263,-1.318 -0.395,-1.976 -0.133,-0.659 -0.263,-1.317 -0.395,-1.975 H -5.4 c 0.658,3.16 1.317,6.321 1.844,9.35 0.658,3.161 1.317,6.19 1.844,9.352 h 3.291 l 3.82,-18.702 z"/></g><g transform="translate(323.8423,334.7224)" id="g102"><path id="path104" style="fill:#ffffff;fill-opacity:1;fill-rule:nonzero;stroke:none" d="m 0,0 v -16.067 h 1.184 v -6.322 h -2.501 v 3.556 H -9.219 V 0 h 2.897 V -16.067 H -3.03 L -3.03,0 Z"/></g><g transform="translate(338.724,327.7422)" id="g106"><path id="path108" style="fill:#ffffff;fill-opacity:1;fill-rule:nonzero;stroke:none" d="M 0,0 -3.95,-11.722 H -6.716 V 6.98 h 2.897 V -4.872 L 0.133,6.98 H 3.029 V -11.722 H 0.133 Z"/></g><g transform="translate(354.7916,331.9567)" id="g110"><path id="path112" style="fill:#ffffff;fill-opacity:1;fill-rule:nonzero;stroke:none" d="m 0,0 c -0.922,0 -1.449,-0.263 -1.843,-0.79 -0.396,-0.527 -0.528,-1.186 -0.528,-2.108 0,-0.922 0.264,-1.58 0.659,-1.844 C -1.317,-5.136 -0.659,-5.267 0,-5.267 H 1.184 V 0 Z m -5.796,-15.935 1.054,5.926 c 0.133,0.658 0.264,1.185 0.659,1.712 0.264,0.527 0.658,0.922 1.186,1.186 -0.922,0.395 -1.45,0.922 -1.845,1.58 -0.263,0.789 -0.525,1.579 -0.525,2.633 0,1.844 0.395,3.293 1.316,4.215 0.922,0.922 2.108,1.449 3.688,1.449 H 4.083 V -15.935 H 1.184 v 8.033 H 0.395 c -0.527,0 -0.922,-0.132 -1.449,-0.527 -0.395,-0.395 -0.789,-1.053 -0.922,-2.107 l -0.921,-5.268 h -2.899 z"/></g><g transform="translate(372.4389,320.1036)" id="g114"><path id="path116" style="fill:#ffffff;fill-opacity:1;fill-rule:nonzero;stroke:none" d="M 0,0 -1.316,3.425 -2.501,6.716 H -2.633 V -4.083 h -2.898 v 18.701 h 2.898 L -0.526,9.351 0.922,5.267 H 1.054 L 2.634,9.482 4.61,14.75 H 7.376 V -3.952 H 4.477 v 10.8 H 4.347 L 3.162,3.556 1.844,0.132 H 0 Z"/></g><g transform="translate(379.9459,310.3578)" id="g118"><path id="path120" style="fill:#e02233;fill-opacity:1;fill-rule:nonzero;stroke:none" d="m 0,0 v 0 c -40.694,-39.774 -122.086,-32.926 -151.587,0 h -16.857 c 22.257,-23.575 54.26,-32.53 81.127,-33.716 2.766,-0.132 5.532,-0.132 8.166,-0.132 17.383,0.264 36.744,4.084 53.602,13.039 C -15.935,-15.804 -7.111,-8.956 0,0"/></g><g transform="translate(379.9459,310.3578)" id="g122"><path id="path124" style="fill:#44a4d4;fill-opacity:1;fill-rule:nonzero;stroke:none" d="M 0,0 C 0,-0.132 0,-0.132 0,0 -0.659,-0.527 -1.317,-0.922 -1.843,-1.317 -46.227,-30.95 -107.863,-25.154 -134.334,0 h -17.253 C -122.086,-32.926 -40.694,-39.905 0,0"/></g><g transform="translate(370.2007,306.1432)" id="g126"><path id="path128" style="fill:#ffffff;fill-opacity:1;fill-rule:nonzero;stroke:none" d="m 0,0 c -20.15,-7.77 -39.115,-11.195 -55.709,-11.326 -23.18,-0.132 -41.486,6.059 -51.233,15.541 h -14.617 -3.029 C -98.249,-20.677 -37.272,-26.603 6.98,2.371 7.243,2.503 7.638,2.766 7.902,3.029 8.56,3.425 9.087,3.82 9.746,4.215 6.454,2.634 3.16,1.317 0,0"/></g><g transform="translate(263.2593,310.4895)" id="g130"><path id="path132" style="fill:#c4c6c0;fill-opacity:1;fill-rule:nonzero;stroke:none" d="m 0,0 h -14.618 -3.03 -17.252 -16.857 c -0.132,0 -0.132,0 -0.264,-0.132 v -0.263 c 10.535,-10.931 23.574,-19.492 38.982,-25.286 12.907,-4.874 27.658,-7.771 42.278,-8.43 2.107,-0.132 4.082,-0.132 6.189,-0.132 h 1.975 c 9.219,0.132 18.307,1.186 26.999,3.293 9.614,2.239 18.57,5.532 26.603,9.746 10.273,5.532 18.965,12.512 25.681,20.941 V -0.132 0 0.132 h -0.13 -0.132 C 113.262,-1.317 109.97,-2.766 106.677,-3.952 87.977,-11.195 68.749,-15.146 51.1,-15.277 H 50.179 C 28.447,-15.277 10.273,-9.614 0.133,0.132 0.133,0 0.133,0 0,0 m 116.686,-0.132 v 0 M 0,-0.132 C 9.614,-9.351 27.526,-15.54 50.31,-15.54 h 0.922 c 16.594,0.132 35.558,3.555 55.71,11.325 3.16,1.317 6.453,2.634 9.744,4.083 -7.11,-8.824 -15.935,-15.672 -25.681,-20.809 -16.858,-8.955 -36.217,-12.775 -53.602,-13.038 h -1.975 c -1.976,0 -4.082,0 -6.189,0.131 -26.868,1.186 -58.74,10.141 -81.128,33.716 h 16.725 17.253 3.029 H 0"/></g><g transform="translate(810.572,446.2245)" id="g134"><path id="path136" style="fill:#1f3a58;fill-opacity:1;fill-rule:nonzero;stroke:none" d="m 0,0 c 0,0.527 -0.133,0.922 -0.527,1.317 -0.265,0.264 -0.658,0.395 -1.185,0.527 v -9.351 c 0.131,0 0.395,0.132 0.527,0.132 0.263,0.132 0.393,0.264 0.526,0.395 0.132,0.132 0.264,0.264 0.396,0.527 0.13,0.264 0.13,0.395 0.13,0.659 V 0 Z M -4.083,1.844 C -4.61,1.712 -5.005,1.581 -5.4,1.317 -5.664,0.922 -5.796,0.527 -5.796,0 v -5.794 c 0,-0.264 0,-0.527 0.132,-0.791 0.133,-0.263 0.264,-0.395 0.395,-0.526 0.132,-0.132 0.397,-0.264 0.527,-0.396 0.264,-0.131 0.395,-0.131 0.659,-0.131 z m 6.19,-7.375 C 2.107,-6.189 1.976,-6.716 1.712,-7.243 1.449,-7.77 1.184,-8.034 0.79,-8.429 0.395,-8.692 0,-8.956 -0.395,-9.219 -0.792,-9.351 -1.317,-9.482 -1.844,-9.482 v -1.186 h -2.239 v 1.186 c -0.659,0.131 -1.317,0.263 -1.843,0.526 -0.528,0.264 -0.922,0.527 -1.187,0.922 -0.263,0.396 -0.525,0.791 -0.658,1.318 -0.131,0.527 -0.264,1.053 -0.264,1.712 v 4.872 c 0,0.659 0.133,1.186 0.397,1.713 0.131,0.395 0.525,0.79 0.79,1.053 0.394,0.395 0.789,0.527 1.317,0.791 0.526,0.263 0.921,0.263 1.448,0.263 v 0.79 h 2.371 v -0.79 c 0.527,0 0.92,-0.132 1.449,-0.263 C 0.132,3.293 0.526,3.029 0.921,2.634 1.317,2.371 1.579,1.844 1.843,1.449 2.107,0.922 2.238,0.395 2.238,-0.263 v -5.268 z"/></g><g transform="translate(822.0294,447.0147)" id="g138"><path id="path140" style="fill:#1f3a58;fill-opacity:1;fill-rule:nonzero;stroke:none" d="m 0,0 c 0,0.395 -0.132,0.79 -0.263,1.185 -0.132,0.396 -0.527,0.527 -1.054,0.527 -0.262,0 -0.526,0 -0.659,-0.131 C -2.238,1.317 -2.371,1.185 -2.371,0.922 -2.501,0.79 -2.501,0.527 -2.501,0.263 v -0.658 -7.639 c 0,-0.395 0.13,-0.79 0.263,-1.053 0.131,-0.264 0.526,-0.527 1.054,-0.527 0.525,0 0.789,0.132 1.052,0.527 0.265,0.263 0.265,0.658 0.265,1.185 l 0,7.902 z m 2.371,-7.507 c 0,-1.317 -0.264,-2.371 -0.922,-3.029 -0.659,-0.659 -1.581,-1.054 -2.766,-1.054 -1.316,0 -2.238,0.264 -2.766,0.922 -0.526,0.659 -0.921,1.581 -0.921,2.766 v 7.639 c 0,0.526 0.132,1.185 0.262,1.58 0.133,0.527 0.397,0.922 0.659,1.317 0.263,0.395 0.658,0.659 1.186,0.791 0.526,0.131 1.054,0.263 1.713,0.263 0.658,0 1.317,-0.132 1.711,-0.263 0.395,0 0.79,-0.264 1.054,-0.659 C 1.844,2.371 2.107,1.976 2.239,1.449 2.371,0.922 2.371,0.395 2.371,-0.263 Z"/></g><g transform="translate(833.8831,435.5568)" id="g142"><path id="path144" style="fill:#1f3a58;fill-opacity:1;fill-rule:nonzero;stroke:none" d="M 0,0 V 6.585 H -2.766 V 0 h -2.239 v 15.145 h 2.371 V 8.824 h 2.766 v 6.321 H 2.501 L 2.501,0 Z"/></g><g transform="translate(844.0233,441.4835)" id="g146"><path id="path148" style="fill:#1f3a58;fill-opacity:1;fill-rule:nonzero;stroke:none" d="M 0,0 C 0,-0.922 -0.132,-1.581 -0.132,-2.239 -0.263,-2.898 -0.395,-3.425 -0.659,-3.82 H 2.634 V 6.98 H 0.263 Z m -2.107,-5.926 v -2.898 h -1.976 v 4.872 l 0.923,0.132 c 0.394,0.395 0.659,0.922 0.789,1.449 0.133,0.527 0.264,1.317 0.264,2.239 l 0.264,9.219 H 5.005 V -3.952 H 5.927 V -8.956 H 3.951 v 2.898 h -6.058 z"/></g><g transform="translate(864.1738,450.834)" id="g150"><path id="path152" style="fill:#1f3a58;fill-opacity:1;fill-rule:nonzero;stroke:none" d="m 0,0 c 0.659,0 1.184,-0.132 1.581,-0.263 0.395,-0.132 0.79,-0.396 1.185,-0.659 0.264,-0.263 0.527,-0.659 0.659,-1.054 0.13,-0.395 0.263,-0.922 0.263,-1.449 L 1.449,-3.952 c 0,0.527 -0.132,1.054 -0.265,1.318 -0.262,0.395 -0.525,0.527 -1.052,0.527 -0.264,0 -0.527,0 -0.659,-0.132 -0.132,-0.132 -0.263,-0.264 -0.395,-0.395 -0.132,-0.132 -0.132,-0.396 -0.132,-0.527 v -0.659 -7.638 -0.527 c 0,-0.132 0.132,-0.395 0.132,-0.527 0.132,-0.132 0.263,-0.263 0.395,-0.395 0.132,-0.132 0.395,-0.132 0.659,-0.132 0.922,0 1.317,0.659 1.317,1.844 0.394,-0.131 0.789,-0.131 1.185,-0.131 0.396,0 0.791,-0.132 1.186,-0.132 0,-1.186 -0.395,-2.108 -0.923,-2.766 -0.659,-0.658 -1.448,-1.053 -2.634,-1.053 -1.317,0 -2.239,0.264 -2.764,0.921 -0.659,0.659 -0.924,1.581 -0.924,2.766 v 7.507 c 0,0.527 0,1.053 0.132,1.58 0.133,0.527 0.397,0.922 0.659,1.318 0.263,0.395 0.658,0.658 1.185,0.922 C -1.317,-0.132 -0.79,0 0,0"/></g><g transform="translate(876.5536,447.0147)" id="g154"><path id="path156" style="fill:#1f3a58;fill-opacity:1;fill-rule:nonzero;stroke:none" d="m 0,0 c 0,0.395 -0.132,0.79 -0.263,1.185 -0.132,0.396 -0.527,0.527 -1.054,0.527 -0.264,0 -0.526,0 -0.659,-0.131 L -2.371,1.185 C -2.501,1.054 -2.501,0.79 -2.634,0.527 V -0.132 -7.77 c 0,-0.395 0.133,-0.79 0.263,-1.054 0.264,-0.263 0.528,-0.527 1.054,-0.527 0.527,0 0.79,0.132 1.054,0.527 C 0,-8.56 0,-8.165 0,-7.638 Z m 2.371,-7.507 c 0,-1.317 -0.264,-2.371 -0.922,-3.029 -0.659,-0.659 -1.581,-1.054 -2.766,-1.054 -1.317,0 -2.238,0.264 -2.766,0.922 -0.526,0.659 -0.922,1.581 -0.922,2.766 v 7.639 c 0,0.526 0.133,1.185 0.263,1.58 0.133,0.527 0.395,0.922 0.659,1.317 0.264,0.395 0.658,0.659 1.186,0.791 0.526,0.131 1.054,0.263 1.713,0.263 0.657,0 1.316,-0.132 1.711,-0.263 C 1.054,3.293 1.317,3.029 1.712,2.634 1.976,2.239 2.239,1.844 2.371,1.317 v -1.449 z"/></g><g transform="translate(886.5626,441.4835)" id="g158"><path id="path160" style="fill:#1f3a58;fill-opacity:1;fill-rule:nonzero;stroke:none" d="M 0,0 C 0,-0.922 -0.132,-1.581 -0.132,-2.239 -0.263,-2.898 -0.395,-3.425 -0.659,-3.82 H 2.634 V 6.98 H 0.263 Z m -2.107,-5.926 v -2.898 h -1.976 v 4.872 l 0.922,0.132 c 0.395,0.395 0.658,0.922 0.79,1.449 0.133,0.527 0.264,1.317 0.264,2.239 l 0.264,9.219 H 5.005 V -3.952 H 5.926 V -8.956 H 3.951 v 2.898 h -6.058 z"/></g><g transform="translate(896.3091,435.5568)" id="g162"><path id="path164" style="fill:#1f3a58;fill-opacity:1;fill-rule:nonzero;stroke:none" d="M 0,0 V 15.145 H 6.716 V 12.907 H 2.37 V 8.824 H 6.189 V 6.585 H 2.37 V 2.239 H 6.716 V 0 Z"/></g><g transform="translate(909.4788,454.1266)" id="g166"><path id="path168" style="fill:#1f3a58;fill-opacity:1;fill-rule:nonzero;stroke:none" d="m 0,0 c 0,-0.132 0,-0.263 0.132,-0.527 0.131,-0.132 0.131,-0.263 0.263,-0.527 0.131,-0.131 0.264,-0.263 0.395,-0.395 0.132,-0.132 0.394,-0.132 0.527,-0.132 0.264,0 0.395,0 0.526,0.132 0.133,0.132 0.264,0.264 0.395,0.395 0.133,0.132 0.265,0.264 0.265,0.527 0,0.132 0.131,0.264 0.131,0.527 L 4.347,0 C 4.347,-0.263 4.214,-0.659 4.083,-1.054 4.214,-1.317 3.95,-1.712 3.688,-1.976 3.425,-2.239 3.161,-2.503 2.766,-2.766 2.371,-2.898 1.976,-3.029 1.449,-3.029 c -0.527,0 -1.054,0.131 -1.449,0.263 -0.395,0.132 -0.659,0.395 -0.922,0.79 -0.262,0.264 -0.395,0.659 -0.527,0.922 -0.132,0.395 -0.263,0.791 -0.263,1.054 z m 2.897,-9.087 -3.16,-9.483 h -2.238 v 15.145 h 2.238 v -9.614 l 3.16,9.614 h 2.24 V -18.57 H 2.766 Z"/></g><g transform="translate(922.7808,450.834)" id="g170"><path id="path172" style="fill:#1f3a58;fill-opacity:1;fill-rule:nonzero;stroke:none" d="M 0,0 C 0.659,0 1.184,-0.132 1.579,-0.263 1.975,-0.395 2.371,-0.659 2.766,-0.922 3.03,-1.185 3.292,-1.581 3.425,-1.976 3.555,-2.371 3.687,-2.898 3.687,-3.425 L 1.449,-3.952 c 0,0.527 -0.132,1.054 -0.265,1.318 -0.263,0.395 -0.525,0.527 -1.052,0.527 -0.265,0 -0.527,0 -0.659,-0.132 -0.132,-0.132 -0.265,-0.264 -0.395,-0.395 -0.132,-0.132 -0.132,-0.396 -0.132,-0.527 v -0.659 -7.638 -0.527 c 0,-0.132 0.132,-0.395 0.132,-0.527 0.13,-0.132 0.263,-0.263 0.395,-0.395 0.132,-0.132 0.394,-0.132 0.659,-0.132 0.922,0 1.317,0.659 1.317,1.844 0.394,-0.131 0.789,-0.131 1.184,-0.131 0.397,0 0.792,-0.132 1.187,-0.132 0,-1.186 -0.395,-2.108 -0.923,-2.766 -0.659,-0.658 -1.448,-1.053 -2.635,-1.053 -1.316,0 -2.238,0.264 -2.765,0.921 -0.657,0.659 -0.922,1.581 -0.922,2.766 v 7.507 c 0,0.527 0,1.053 0.132,1.58 0.133,0.527 0.395,0.922 0.659,1.318 0.263,0.395 0.658,0.658 1.184,0.922 C -1.317,-0.132 -0.659,0 0,0"/></g><g transform="translate(934.1071,448.4635)" id="g174"><path id="path176" style="fill:#1f3a58;fill-opacity:1;fill-rule:nonzero;stroke:none" d="M 0,0 V -12.907 H -2.371 V 0 H -4.872 V 2.239 H 2.371 L 2.371,0 Z"/></g><g transform="translate(945.1697,440.4297)" id="g178"><path id="path180" style="fill:#1f3a58;fill-opacity:1;fill-rule:nonzero;stroke:none" d="m 0,0 c 0,0.659 -0.132,1.185 -0.395,1.581 -0.264,0.395 -0.659,0.526 -1.317,0.526 h -0.922 v -4.741 h 0.922 c 0.395,0 0.658,0.131 0.922,0.263 0.263,0.132 0.395,0.264 0.527,0.527 C -0.132,-1.581 0,-1.317 0,-1.054 Z m -0.132,6.058 c 0,0.658 -0.131,1.185 -0.395,1.449 -0.263,0.263 -0.79,0.395 -1.316,0.395 h -0.791 v -3.95 h 0.791 c 0.658,0 1.053,0.131 1.316,0.526 0.264,0.526 0.395,1.053 0.395,1.58 M 0.526,3.029 C 1.184,2.766 1.712,2.371 1.843,1.844 2.107,1.185 2.238,0.527 2.238,-0.263 c 0,-1.581 -0.395,-2.766 -1.054,-3.425 -0.658,-0.79 -1.711,-1.054 -3.16,-1.054 h -3.161 v 15.015 h 3.294 c 1.316,0 2.369,-0.395 2.897,-1.054 C 1.712,8.56 1.976,7.507 1.976,6.189 1.976,5.531 1.843,4.872 1.581,4.347 1.581,3.82 1.054,3.425 0.526,3.029"/></g><g transform="translate(957.2856,445.0393)" id="g182"><path id="path184" style="fill:#1f3a58;fill-opacity:1;fill-rule:nonzero;stroke:none" d="M 0,0 -3.16,-9.482 H -5.399 V 5.663 h 2.239 v -9.615 h 0.131 L 0.133,5.663 H 2.371 V -9.482 H 0 Z"/></g><g transform="translate(968.2169,448.4635)" id="g186"><path id="path188" style="fill:#1f3a58;fill-opacity:1;fill-rule:nonzero;stroke:none" d="m 0,0 c -0.659,0 -1.184,-0.263 -1.449,-0.659 -0.263,-0.395 -0.394,-0.922 -0.394,-1.712 0,-0.79 0.131,-1.185 0.526,-1.581 C -0.922,-4.215 -0.526,-4.347 0,-4.347 H 0.922 V 0 Z m -4.609,-12.907 0.79,4.742 c 0.131,0.527 0.264,0.922 0.526,1.317 0.264,0.395 0.527,0.79 0.922,0.922 -0.658,0.263 -1.184,0.79 -1.448,1.317 -0.264,0.526 -0.395,1.316 -0.395,2.106 0,1.449 0.395,2.635 1.054,3.425 0.659,0.79 1.711,1.185 3.028,1.185 H 3.293 V -13.039 H 0.922 v 6.586 H 0.263 c -0.395,0 -0.789,-0.132 -1.185,-0.527 -0.395,-0.263 -0.527,-0.922 -0.79,-1.712 l -0.659,-4.215 z"/></g><g transform="translate(809.6498,423.0452)" id="g190"><path id="path192" style="fill:#1f3a58;fill-opacity:1;fill-rule:nonzero;stroke:none" d="M 0,0 -3.95,-11.722 H -6.716 V 6.98 H -3.82 V -4.872 h 0.132 L 0.263,6.98 H 3.16 V -11.722 H 0.132 Z"/></g><g transform="translate(826.9022,411.324)" id="g194"><path id="path196" style="fill:#1f3a58;fill-opacity:1;fill-rule:nonzero;stroke:none" d="M 0,0 V 8.165 H -3.292 V 0 H -6.19 v 18.701 h 2.898 v -7.77 h 3.425 v 7.77 H 3.029 L 3.029,0 Z"/></g><g transform="translate(844.287,411.324)" id="g198"><path id="path200" style="fill:#1f3a58;fill-opacity:1;fill-rule:nonzero;stroke:none" d="M 0,0 V 8.165 H -3.425 V 0 h -2.896 v 18.701 h 2.896 v -7.77 H 0 v 7.77 H 2.897 V 0 Z"/></g><g transform="translate(861.4083,425.416)" id="g202"><path id="path204" style="fill:#1f3a58;fill-opacity:1;fill-rule:nonzero;stroke:none" d="M 0,0 C 0,0.527 -0.132,0.922 -0.395,1.449 -0.659,1.844 -1.054,2.107 -1.712,2.107 -2.107,2.107 -2.371,1.976 -2.501,1.844 -2.766,1.712 -2.898,1.449 -3.029,1.317 -3.16,1.054 -3.293,0.79 -3.293,0.527 -3.293,0.263 -3.425,0 -3.425,-0.263 v -9.483 c 0,-0.527 0.132,-0.922 0.396,-1.317 0.263,-0.395 0.658,-0.527 1.317,-0.527 0.658,0 1.053,0.264 1.317,0.659 0.263,0.395 0.395,0.922 0.395,1.449 z m 2.897,-9.351 c 0,-1.58 -0.396,-2.897 -1.054,-3.688 -0.789,-0.79 -1.843,-1.185 -3.555,-1.185 -1.581,0 -2.766,0.395 -3.425,1.185 -0.659,0.791 -1.052,1.976 -1.052,3.425 v 9.351 c 0,0.79 0.13,1.448 0.263,1.975 0.13,0.659 0.395,1.186 0.789,1.581 0.395,0.395 0.79,0.79 1.449,1.052 0.528,0.264 1.317,0.396 2.107,0.396 C -0.659,4.741 0,4.609 0.659,4.345 1.184,4.083 1.712,3.82 2.107,3.425 2.501,3.029 2.766,2.503 2.897,1.844 3.029,1.185 3.16,0.527 3.16,-0.263 v -9.088 z"/></g><g transform="translate(878.5294,417.2505)" id="g206"><path id="path208" style="fill:#1f3a58;fill-opacity:1;fill-rule:nonzero;stroke:none" d="m 0,0 c 0,0.922 -0.133,1.581 -0.527,1.976 -0.265,0.395 -0.922,0.658 -1.712,0.658 h -1.054 v -5.795 h 1.186 c 0.526,0 0.79,0.132 1.185,0.263 0.263,0.132 0.527,0.395 0.659,0.659 C -0.133,-1.976 0,-1.581 0,-1.185 Z m -0.133,7.638 c 0,0.922 -0.13,1.449 -0.526,1.844 -0.395,0.396 -0.922,0.527 -1.712,0.527 H -3.293 V 5.267 h 0.922 c 0.79,0 1.317,0.264 1.712,0.659 0.396,0.263 0.526,0.922 0.526,1.712 M 0.659,3.82 C 1.449,3.555 2.107,3.029 2.371,2.239 2.633,1.449 2.897,0.659 2.897,-0.395 2.897,-2.371 2.501,-3.82 1.579,-4.742 0.79,-5.663 -0.527,-6.058 -2.239,-6.058 h -3.95 v 18.833 h 4.082 c 1.712,0 2.897,-0.395 3.556,-1.317 C 2.238,10.536 2.633,9.351 2.633,7.638 2.633,6.716 2.501,6.058 2.238,5.399 1.976,4.741 1.449,4.214 0.659,3.952 Z"/></g><g transform="translate(893.5435,425.6793)" id="g210"><path id="path212" style="fill:#1f3a58;fill-opacity:1;fill-rule:nonzero;stroke:none" d="M 0,0 C -0.133,-1.317 -0.396,-2.634 -0.527,-3.82 -0.792,-5.136 -0.922,-6.453 -1.185,-7.77 H 1.449 L 0.262,0 Z m 2.633,-14.355 -0.79,3.951 h -3.424 c -0.131,-0.659 -0.263,-1.318 -0.395,-1.976 -0.133,-0.659 -0.263,-1.317 -0.395,-1.975 H -5.4 c 0.658,3.16 1.317,6.321 1.844,9.35 0.658,3.161 1.317,6.19 1.844,9.352 h 3.291 l 3.82,-18.702 z"/></g><g transform="translate(915.2739,430.0254)" id="g214"><path id="path216" style="fill:#1f3a58;fill-opacity:1;fill-rule:nonzero;stroke:none" d="m 0,0 v -16.067 h 1.184 v -6.322 h -2.501 v 3.556 H -9.219 V 0 h 2.897 v -16.067 h 3.293 l 0,16.067 z"/></g><g transform="translate(930.1555,423.0452)" id="g218"><path id="path220" style="fill:#1f3a58;fill-opacity:1;fill-rule:nonzero;stroke:none" d="M 0,0 -3.95,-11.722 H -6.716 V 6.98 h 2.897 V -4.872 L 0.133,6.98 H 3.03 V -11.722 H 0.133 Z"/></g><g transform="translate(946.2231,427.2597)" id="g222"><path id="path224" style="fill:#1f3a58;fill-opacity:1;fill-rule:nonzero;stroke:none" d="m 0,0 c -0.922,0 -1.449,-0.263 -1.843,-0.79 -0.396,-0.527 -0.528,-1.186 -0.528,-2.108 0,-0.922 0.264,-1.58 0.659,-1.844 C -1.317,-5.136 -0.659,-5.267 0,-5.267 H 1.184 V 0 Z m -5.796,-15.935 1.054,5.926 c 0.133,0.658 0.264,1.185 0.659,1.712 0.264,0.527 0.658,0.922 1.186,1.186 -0.922,0.395 -1.45,0.922 -1.845,1.58 -0.263,0.789 -0.525,1.579 -0.525,2.633 0,1.844 0.395,3.293 1.316,4.215 0.922,0.922 2.108,1.449 3.688,1.449 H 4.083 V -15.935 H 1.184 v 8.033 H 0.395 c -0.527,0 -0.922,-0.132 -1.449,-0.527 -0.395,-0.395 -0.789,-1.053 -0.922,-2.107 l -0.921,-5.268 h -2.899 z"/></g><g transform="translate(963.8705,415.4067)" id="g226"><path id="path228" style="fill:#1f3a58;fill-opacity:1;fill-rule:nonzero;stroke:none" d="M 0,0 -1.316,3.425 -2.501,6.716 H -2.633 V -4.083 h -2.898 v 18.701 h 2.898 L -0.526,9.351 0.922,5.267 H 1.054 L 2.634,9.482 4.61,14.75 H 7.376 V -3.952 H 4.477 v 10.8 H 4.347 L 3.162,3.556 1.844,0.132 H 0 Z"/></g><g transform="translate(971.3775,405.6609)" id="g230"><path id="path232" style="fill:#e02233;fill-opacity:1;fill-rule:nonzero;stroke:none" d="m 0,0 v 0 c -40.694,-39.774 -122.086,-32.926 -151.587,0 h -16.857 c 22.257,-23.575 54.26,-32.53 81.127,-33.716 2.766,-0.132 5.532,-0.132 8.166,-0.132 17.383,0.264 36.744,4.084 53.602,13.039 C -15.935,-15.804 -7.112,-8.956 0,0"/></g><g transform="translate(971.3775,405.6609)" id="g234"><path id="path236" style="fill:#44a4d4;fill-opacity:1;fill-rule:nonzero;stroke:none" d="M 0,0 C 0,-0.132 0,-0.132 0,0 -0.659,-0.527 -1.317,-0.922 -1.843,-1.317 -46.227,-30.95 -107.863,-25.154 -134.334,0 h -17.253 C -122.086,-32.926 -40.694,-39.905 0,0"/></g><g transform="translate(961.6323,401.4463)" id="g238"><path id="path240" style="fill:#ffffff;fill-opacity:1;fill-rule:nonzero;stroke:none" d="m 0,0 c -20.15,-7.77 -39.115,-11.195 -55.709,-11.326 -23.18,-0.132 -41.486,6.059 -51.233,15.541 h -14.617 -3.029 C -98.249,-20.677 -37.272,-26.603 6.98,2.371 7.243,2.503 7.638,2.766 7.902,3.03 8.56,3.425 9.087,3.82 9.746,4.215 6.454,2.634 3.16,1.317 0,0"/></g><g transform="translate(854.6909,405.7926)" id="g242"><path id="path244" style="fill:#c4c6c0;fill-opacity:1;fill-rule:nonzero;stroke:none" d="m 0,0 h -14.618 -3.03 -17.252 -16.857 c -0.132,0 -0.132,0 -0.264,-0.132 v -0.263 c 10.535,-10.931 23.574,-19.492 38.982,-25.286 12.907,-4.874 27.658,-7.771 42.278,-8.43 2.107,-0.132 4.082,-0.132 6.189,-0.132 h 1.975 c 9.219,0.132 18.307,1.186 26.999,3.293 9.614,2.239 18.57,5.532 26.603,9.746 10.273,5.532 18.965,12.512 25.681,20.941 V -0.132 0 0.132 h -0.13 -0.132 C 113.262,-1.317 109.97,-2.766 106.677,-3.952 87.977,-11.195 68.749,-15.146 51.1,-15.277 H 50.179 C 28.447,-15.277 10.273,-9.614 0.133,0.132 0.133,0 0.133,0 0,0 m 116.686,-0.132 v 0 M 0,-0.132 C 9.614,-9.351 27.526,-15.54 50.31,-15.54 h 0.922 c 16.594,0.132 35.558,3.555 55.71,11.325 3.16,1.317 6.453,2.634 9.744,4.083 -7.11,-8.824 -15.935,-15.672 -25.681,-20.809 -16.858,-8.955 -36.217,-12.775 -53.602,-13.038 h -1.975 c -1.976,0 -4.082,0 -6.189,0.131 -26.868,1.186 -58.74,10.141 -81.128,33.716 h 16.725 17.253 3.029 H 0"/></g><g transform="translate(810.572,224.2245)" id="g246"><path id="path248" style="fill:#414345;fill-opacity:1;fill-rule:nonzero;stroke:none" d="m 0,0 c 0,0.527 -0.133,0.922 -0.527,1.317 -0.265,0.264 -0.658,0.395 -1.185,0.527 v -9.351 c 0.131,0 0.395,0.132 0.527,0.132 0.263,0.132 0.393,0.264 0.526,0.395 0.132,0.132 0.264,0.264 0.396,0.527 0.13,0.264 0.13,0.395 0.13,0.659 V 0 Z M -4.083,1.844 C -4.61,1.712 -5.005,1.581 -5.4,1.317 -5.664,0.922 -5.796,0.527 -5.796,0 v -5.794 c 0,-0.264 0,-0.527 0.132,-0.791 0.133,-0.263 0.264,-0.395 0.395,-0.526 0.132,-0.132 0.397,-0.264 0.527,-0.396 0.264,-0.131 0.395,-0.131 0.659,-0.131 z m 6.19,-7.375 C 2.107,-6.189 1.976,-6.716 1.712,-7.243 1.449,-7.77 1.184,-8.034 0.79,-8.429 0.395,-8.692 0,-8.956 -0.395,-9.219 -0.792,-9.351 -1.317,-9.482 -1.844,-9.482 v -1.186 h -2.239 v 1.186 c -0.659,0.131 -1.317,0.263 -1.843,0.526 -0.528,0.264 -0.922,0.527 -1.187,0.922 -0.263,0.396 -0.525,0.791 -0.658,1.318 -0.131,0.527 -0.264,1.053 -0.264,1.712 v 4.872 c 0,0.659 0.133,1.186 0.397,1.713 0.131,0.395 0.525,0.79 0.79,1.053 0.394,0.395 0.789,0.527 1.317,0.791 0.526,0.263 0.921,0.263 1.448,0.263 v 0.79 h 2.371 v -0.79 c 0.527,0 0.92,-0.132 1.449,-0.263 C 0.132,3.293 0.526,3.029 0.921,2.634 1.317,2.371 1.579,1.844 1.843,1.449 2.107,0.922 2.238,0.395 2.238,-0.263 v -5.268 z"/></g><g transform="translate(822.0294,225.0147)" id="g250"><path id="path252" style="fill:#414345;fill-opacity:1;fill-rule:nonzero;stroke:none" d="m 0,0 c 0,0.395 -0.132,0.79 -0.263,1.185 -0.132,0.396 -0.527,0.527 -1.054,0.527 -0.262,0 -0.526,0 -0.659,-0.131 C -2.238,1.317 -2.371,1.185 -2.371,0.922 -2.501,0.79 -2.501,0.527 -2.501,0.263 v -0.658 -7.639 c 0,-0.395 0.13,-0.79 0.263,-1.053 0.131,-0.264 0.526,-0.527 1.054,-0.527 0.525,0 0.789,0.132 1.052,0.527 0.265,0.263 0.265,0.658 0.265,1.185 l 0,7.902 z m 2.371,-7.507 c 0,-1.317 -0.264,-2.371 -0.922,-3.029 -0.659,-0.659 -1.581,-1.054 -2.766,-1.054 -1.316,0 -2.238,0.264 -2.766,0.922 -0.526,0.659 -0.921,1.581 -0.921,2.766 v 7.639 c 0,0.526 0.132,1.185 0.262,1.58 0.133,0.527 0.397,0.922 0.659,1.317 0.263,0.395 0.658,0.659 1.186,0.791 0.526,0.131 1.054,0.263 1.713,0.263 0.658,0 1.317,-0.132 1.711,-0.263 0.395,0 0.79,-0.264 1.054,-0.659 C 1.844,2.371 2.107,1.976 2.239,1.449 2.371,0.922 2.371,0.395 2.371,-0.263 Z"/></g><g transform="translate(833.8831,213.5568)" id="g254"><path id="path256" style="fill:#414345;fill-opacity:1;fill-rule:nonzero;stroke:none" d="M 0,0 V 6.585 H -2.766 V 0 h -2.239 v 15.145 h 2.371 V 8.824 h 2.766 v 6.321 H 2.501 L 2.501,0 Z"/></g><g transform="translate(844.0233,219.4835)" id="g258"><path id="path260" style="fill:#414345;fill-opacity:1;fill-rule:nonzero;stroke:none" d="M 0,0 C 0,-0.922 -0.132,-1.581 -0.132,-2.239 -0.263,-2.898 -0.395,-3.425 -0.659,-3.82 H 2.634 V 6.98 H 0.263 Z m -2.107,-5.926 v -2.898 h -1.976 v 4.872 l 0.923,0.132 c 0.394,0.395 0.659,0.922 0.789,1.449 0.133,0.527 0.264,1.317 0.264,2.239 l 0.264,9.219 H 5.005 V -3.952 H 5.927 V -8.956 H 3.951 v 2.898 h -6.058 z"/></g><g transform="translate(864.1738,228.834)" id="g262"><path id="path264" style="fill:#414345;fill-opacity:1;fill-rule:nonzero;stroke:none" d="m 0,0 c 0.659,0 1.184,-0.132 1.581,-0.263 0.395,-0.132 0.79,-0.396 1.185,-0.659 0.264,-0.263 0.527,-0.659 0.659,-1.054 0.13,-0.395 0.263,-0.922 0.263,-1.449 L 1.449,-3.952 c 0,0.527 -0.132,1.054 -0.265,1.318 -0.262,0.395 -0.525,0.527 -1.052,0.527 -0.264,0 -0.527,0 -0.659,-0.132 -0.132,-0.132 -0.263,-0.264 -0.395,-0.395 -0.132,-0.132 -0.132,-0.395 -0.132,-0.527 v -0.659 -7.638 -0.527 c 0,-0.132 0.132,-0.395 0.132,-0.527 l 0.395,-0.395 c 0.132,-0.132 0.395,-0.132 0.659,-0.132 0.922,0 1.317,0.659 1.317,1.844 0.394,-0.131 0.789,-0.131 1.185,-0.131 0.396,0 0.791,-0.132 1.186,-0.132 0,-1.186 -0.395,-2.108 -0.923,-2.766 -0.659,-0.658 -1.448,-1.053 -2.634,-1.053 -1.317,0 -2.239,0.264 -2.764,0.921 -0.659,0.659 -0.924,1.581 -0.924,2.766 v 7.507 c 0,0.527 0,1.054 0.132,1.58 0.133,0.527 0.397,0.922 0.659,1.318 0.263,0.395 0.658,0.658 1.185,0.922 C -1.317,-0.132 -0.79,0 0,0"/></g><g transform="translate(876.5536,225.0147)" id="g266"><path id="path268" style="fill:#414345;fill-opacity:1;fill-rule:nonzero;stroke:none" d="m 0,0 c 0,0.395 -0.132,0.79 -0.263,1.185 -0.132,0.396 -0.527,0.527 -1.054,0.527 -0.264,0 -0.526,0 -0.659,-0.131 C -2.107,1.449 -2.239,1.317 -2.371,1.185 -2.501,1.054 -2.501,0.79 -2.634,0.527 V -0.132 -7.77 c 0,-0.395 0.133,-0.79 0.263,-1.054 0.264,-0.263 0.528,-0.527 1.054,-0.527 0.527,0 0.79,0.132 1.054,0.527 C 0,-8.56 0,-8.165 0,-7.638 Z m 2.371,-7.507 c 0,-1.317 -0.264,-2.371 -0.922,-3.029 -0.659,-0.659 -1.581,-1.054 -2.766,-1.054 -1.317,0 -2.238,0.264 -2.766,0.922 -0.526,0.659 -0.922,1.581 -0.922,2.766 v 7.639 c 0,0.526 0.133,1.185 0.263,1.58 0.133,0.527 0.395,0.922 0.659,1.317 0.264,0.395 0.658,0.659 1.186,0.791 0.526,0.131 1.054,0.263 1.713,0.263 0.657,0 1.316,-0.132 1.711,-0.263 C 1.054,3.293 1.317,3.029 1.712,2.634 1.976,2.239 2.239,1.844 2.371,1.317 v -1.449 z"/></g><g transform="translate(886.5626,219.4835)" id="g270"><path id="path272" style="fill:#414345;fill-opacity:1;fill-rule:nonzero;stroke:none" d="M 0,0 C 0,-0.922 -0.132,-1.581 -0.132,-2.239 -0.263,-2.898 -0.395,-3.425 -0.659,-3.82 H 2.634 V 6.98 H 0.263 Z m -2.107,-5.926 v -2.898 h -1.976 v 4.872 l 0.922,0.132 c 0.395,0.395 0.658,0.922 0.79,1.449 0.133,0.527 0.264,1.317 0.264,2.239 l 0.264,9.219 H 5.005 V -3.952 H 5.926 V -8.956 H 3.951 v 2.898 h -6.058 z"/></g><g transform="translate(896.3091,213.5568)" id="g274"><path id="path276" style="fill:#414345;fill-opacity:1;fill-rule:nonzero;stroke:none" d="M 0,0 V 15.145 H 6.716 V 12.907 H 2.37 V 8.824 H 6.189 V 6.585 H 2.37 V 2.239 H 6.716 V 0 Z"/></g><g transform="translate(909.4788,232.1266)" id="g278"><path id="path280" style="fill:#414345;fill-opacity:1;fill-rule:nonzero;stroke:none" d="m 0,0 c 0,-0.132 0,-0.263 0.132,-0.527 0.131,-0.132 0.131,-0.263 0.263,-0.527 0.131,-0.131 0.264,-0.263 0.395,-0.395 0.132,-0.132 0.394,-0.132 0.527,-0.132 0.264,0 0.395,0 0.526,0.132 0.133,0.132 0.264,0.264 0.395,0.395 0.133,0.132 0.265,0.264 0.265,0.527 0,0.132 0.131,0.264 0.131,0.527 L 4.347,0 C 4.347,-0.263 4.214,-0.659 4.083,-1.054 4.214,-1.317 3.95,-1.712 3.688,-1.976 3.425,-2.239 3.161,-2.503 2.766,-2.766 2.371,-2.898 1.976,-3.029 1.449,-3.029 c -0.527,0 -1.054,0.131 -1.449,0.263 -0.395,0.132 -0.659,0.395 -0.922,0.79 -0.262,0.264 -0.395,0.659 -0.527,0.922 -0.132,0.395 -0.263,0.791 -0.263,1.054 z m 2.897,-9.087 -3.16,-9.483 h -2.238 v 15.145 h 2.238 v -9.614 l 3.16,9.614 h 2.24 V -18.57 H 2.766 Z"/></g><g transform="translate(922.7808,228.834)" id="g282"><path id="path284" style="fill:#414345;fill-opacity:1;fill-rule:nonzero;stroke:none" d="M 0,0 C 0.659,0 1.184,-0.132 1.579,-0.263 1.975,-0.395 2.371,-0.659 2.766,-0.922 3.03,-1.185 3.292,-1.581 3.425,-1.976 3.555,-2.371 3.687,-2.898 3.687,-3.425 L 1.449,-3.952 c 0,0.527 -0.132,1.054 -0.265,1.318 -0.263,0.395 -0.525,0.527 -1.052,0.527 -0.265,0 -0.527,0 -0.659,-0.132 -0.132,-0.132 -0.265,-0.264 -0.395,-0.395 -0.132,-0.132 -0.132,-0.395 -0.132,-0.527 v -0.659 -7.638 -0.527 c 0,-0.132 0.132,-0.395 0.132,-0.527 0.13,-0.132 0.263,-0.263 0.395,-0.395 0.132,-0.132 0.394,-0.132 0.659,-0.132 0.922,0 1.317,0.659 1.317,1.844 0.394,-0.131 0.789,-0.131 1.184,-0.131 0.397,0 0.792,-0.132 1.187,-0.132 0,-1.186 -0.395,-2.108 -0.923,-2.766 -0.659,-0.658 -1.448,-1.053 -2.635,-1.053 -1.316,0 -2.238,0.264 -2.765,0.921 -0.657,0.659 -0.922,1.581 -0.922,2.766 v 7.507 c 0,0.527 0,1.054 0.132,1.58 0.133,0.527 0.395,0.922 0.659,1.318 0.263,0.395 0.658,0.658 1.184,0.922 C -1.317,-0.132 -0.659,0 0,0"/></g><g transform="translate(934.1071,226.4635)" id="g286"><path id="path288" style="fill:#414345;fill-opacity:1;fill-rule:nonzero;stroke:none" d="M 0,0 V -12.907 H -2.371 V 0 H -4.872 V 2.239 H 2.371 L 2.371,0 Z"/></g><g transform="translate(945.1697,218.4297)" id="g290"><path id="path292" style="fill:#414345;fill-opacity:1;fill-rule:nonzero;stroke:none" d="m 0,0 c 0,0.659 -0.132,1.185 -0.395,1.581 -0.264,0.395 -0.659,0.526 -1.317,0.526 h -0.922 v -4.741 h 0.922 c 0.395,0 0.658,0.131 0.922,0.263 0.263,0.132 0.395,0.264 0.527,0.527 C -0.132,-1.581 0,-1.317 0,-1.054 Z m -0.132,6.058 c 0,0.658 -0.131,1.185 -0.395,1.449 -0.263,0.263 -0.79,0.395 -1.316,0.395 h -0.791 v -3.95 h 0.791 c 0.658,0 1.053,0.131 1.316,0.526 0.264,0.526 0.395,1.053 0.395,1.58 M 0.526,3.029 C 1.184,2.766 1.712,2.371 1.843,1.844 2.107,1.185 2.238,0.527 2.238,-0.263 c 0,-1.581 -0.395,-2.766 -1.054,-3.425 -0.658,-0.79 -1.711,-1.054 -3.16,-1.054 h -3.161 v 15.015 h 3.294 c 1.316,0 2.369,-0.395 2.897,-1.054 C 1.712,8.56 1.976,7.507 1.976,6.189 1.976,5.531 1.843,4.872 1.581,4.347 1.581,3.82 1.054,3.425 0.526,3.029"/></g><g transform="translate(957.2856,223.0394)" id="g294"><path id="path296" style="fill:#414345;fill-opacity:1;fill-rule:nonzero;stroke:none" d="M 0,0 -3.16,-9.482 H -5.399 V 5.663 h 2.239 v -9.615 h 0.131 L 0.133,5.663 H 2.371 V -9.482 H 0 Z"/></g><g transform="translate(968.2169,226.4635)" id="g298"><path id="path300" style="fill:#414345;fill-opacity:1;fill-rule:nonzero;stroke:none" d="m 0,0 c -0.659,0 -1.184,-0.263 -1.449,-0.659 -0.263,-0.395 -0.394,-0.922 -0.394,-1.712 0,-0.79 0.131,-1.185 0.526,-1.581 C -0.922,-4.215 -0.526,-4.347 0,-4.347 H 0.922 V 0 Z m -4.609,-12.907 0.79,4.742 c 0.131,0.527 0.264,0.922 0.526,1.317 0.264,0.395 0.527,0.79 0.922,0.922 -0.658,0.263 -1.184,0.79 -1.448,1.317 -0.264,0.526 -0.395,1.316 -0.395,2.106 0,1.449 0.395,2.635 1.054,3.425 0.659,0.79 1.711,1.185 3.028,1.185 H 3.293 V -13.039 H 0.922 v 6.586 H 0.263 c -0.395,0 -0.789,-0.132 -1.185,-0.527 -0.395,-0.263 -0.527,-0.922 -0.79,-1.712 l -0.659,-4.215 z"/></g><g transform="translate(809.6498,201.0452)" id="g302"><path id="path304" style="fill:#414345;fill-opacity:1;fill-rule:nonzero;stroke:none" d="M 0,0 -3.95,-11.722 H -6.716 V 6.98 H -3.82 V -4.872 h 0.132 L 0.263,6.98 H 3.16 V -11.722 H 0.132 Z"/></g><g transform="translate(826.9022,189.324)" id="g306"><path id="path308" style="fill:#414345;fill-opacity:1;fill-rule:nonzero;stroke:none" d="M 0,0 V 8.165 H -3.292 V 0 H -6.19 v 18.701 h 2.898 v -7.77 h 3.425 v 7.77 H 3.029 L 3.029,0 Z"/></g><g transform="translate(844.287,189.324)" id="g310"><path id="path312" style="fill:#414345;fill-opacity:1;fill-rule:nonzero;stroke:none" d="M 0,0 V 8.165 H -3.425 V 0 h -2.896 v 18.701 h 2.896 v -7.77 H 0 v 7.77 H 2.897 V 0 Z"/></g><g transform="translate(861.4083,203.416)" id="g314"><path id="path316" style="fill:#414345;fill-opacity:1;fill-rule:nonzero;stroke:none" d="M 0,0 C 0,0.527 -0.132,0.922 -0.395,1.449 -0.659,1.844 -1.054,2.107 -1.712,2.107 -2.107,2.107 -2.371,1.976 -2.501,1.844 -2.766,1.712 -2.898,1.449 -3.029,1.317 -3.16,1.054 -3.293,0.79 -3.293,0.527 -3.293,0.263 -3.425,0 -3.425,-0.263 v -9.483 c 0,-0.527 0.132,-0.922 0.396,-1.317 0.263,-0.395 0.658,-0.527 1.317,-0.527 0.658,0 1.053,0.264 1.317,0.659 0.263,0.395 0.395,0.922 0.395,1.449 z m 2.897,-9.351 c 0,-1.58 -0.396,-2.897 -1.054,-3.688 -0.789,-0.79 -1.843,-1.185 -3.555,-1.185 -1.581,0 -2.766,0.395 -3.425,1.185 -0.659,0.791 -1.052,1.976 -1.052,3.425 v 9.351 c 0,0.79 0.13,1.448 0.263,1.975 0.13,0.659 0.395,1.186 0.789,1.581 0.395,0.395 0.79,0.79 1.449,1.052 0.528,0.264 1.317,0.396 2.107,0.396 C -0.659,4.741 0,4.609 0.659,4.345 1.184,4.083 1.712,3.82 2.107,3.425 2.501,3.029 2.766,2.503 2.897,1.844 3.029,1.185 3.16,0.527 3.16,-0.263 v -9.088 z"/></g><g transform="translate(878.5294,195.2505)" id="g318"><path id="path320" style="fill:#414345;fill-opacity:1;fill-rule:nonzero;stroke:none" d="m 0,0 c 0,0.922 -0.133,1.581 -0.527,1.976 -0.265,0.395 -0.922,0.658 -1.712,0.658 h -1.054 v -5.795 h 1.186 c 0.526,0 0.79,0.132 1.185,0.263 0.263,0.132 0.527,0.395 0.659,0.659 C -0.133,-1.976 0,-1.581 0,-1.185 Z m -0.133,7.638 c 0,0.922 -0.13,1.449 -0.526,1.844 -0.395,0.396 -0.922,0.527 -1.712,0.527 H -3.293 V 5.267 h 0.922 c 0.79,0 1.317,0.264 1.712,0.659 0.396,0.263 0.526,0.922 0.526,1.712 M 0.659,3.82 C 1.449,3.555 2.107,3.029 2.371,2.239 2.633,1.449 2.897,0.659 2.897,-0.395 2.897,-2.371 2.501,-3.82 1.579,-4.742 0.79,-5.663 -0.527,-6.058 -2.239,-6.058 h -3.95 v 18.833 h 4.082 c 1.712,0 2.897,-0.395 3.556,-1.317 C 2.238,10.536 2.633,9.351 2.633,7.638 2.633,6.716 2.501,6.058 2.238,5.399 1.976,4.741 1.449,4.214 0.659,3.952 Z"/></g><g transform="translate(893.5435,203.6793)" id="g322"><path id="path324" style="fill:#414345;fill-opacity:1;fill-rule:nonzero;stroke:none" d="M 0,0 C -0.133,-1.317 -0.396,-2.634 -0.527,-3.82 -0.792,-5.136 -0.922,-6.453 -1.185,-7.77 H 1.449 L 0.262,0 Z m 2.633,-14.355 -0.79,3.951 h -3.424 c -0.131,-0.659 -0.263,-1.318 -0.395,-1.976 -0.133,-0.659 -0.263,-1.317 -0.395,-1.975 H -5.4 c 0.658,3.16 1.317,6.321 1.844,9.35 0.658,3.161 1.317,6.19 1.844,9.352 h 3.291 l 3.82,-18.702 z"/></g><g transform="translate(915.2739,208.0254)" id="g326"><path id="path328" style="fill:#414345;fill-opacity:1;fill-rule:nonzero;stroke:none" d="m 0,0 v -16.067 h 1.184 v -6.322 h -2.501 v 3.556 H -9.219 V 0 h 2.897 v -16.067 h 3.293 l 0,16.067 z"/></g><g transform="translate(930.1555,201.0452)" id="g330"><path id="path332" style="fill:#414345;fill-opacity:1;fill-rule:nonzero;stroke:none" d="M 0,0 -3.95,-11.722 H -6.716 V 6.98 h 2.897 V -4.872 L 0.133,6.98 H 3.03 V -11.722 H 0.133 Z"/></g><g transform="translate(946.2231,205.2597)" id="g334"><path id="path336" style="fill:#414345;fill-opacity:1;fill-rule:nonzero;stroke:none" d="m 0,0 c -0.922,0 -1.449,-0.263 -1.843,-0.79 -0.396,-0.527 -0.528,-1.186 -0.528,-2.108 0,-0.922 0.264,-1.58 0.659,-1.844 C -1.317,-5.136 -0.659,-5.267 0,-5.267 H 1.184 V 0 Z m -5.796,-15.935 1.054,5.926 c 0.133,0.658 0.264,1.185 0.659,1.712 0.264,0.527 0.658,0.922 1.186,1.186 -0.922,0.395 -1.45,0.922 -1.845,1.58 -0.263,0.789 -0.525,1.579 -0.525,2.633 0,1.844 0.395,3.293 1.316,4.215 0.922,0.922 2.108,1.449 3.688,1.449 H 4.083 V -15.935 H 1.184 v 8.033 H 0.395 c -0.527,0 -0.922,-0.132 -1.449,-0.527 -0.395,-0.395 -0.789,-1.053 -0.922,-2.107 l -0.921,-5.268 h -2.899 z"/></g><g transform="translate(963.8705,193.4067)" id="g338"><path id="path340" style="fill:#414345;fill-opacity:1;fill-rule:nonzero;stroke:none" d="M 0,0 -1.316,3.425 -2.501,6.716 H -2.633 V -4.083 h -2.898 v 18.701 h 2.898 L -0.526,9.351 0.922,5.267 H 1.054 L 2.634,9.482 4.61,14.75 H 7.376 V -3.952 H 4.477 v 10.8 H 4.347 L 3.162,3.556 1.844,0.132 H 0 Z"/></g><g transform="translate(971.3775,183.6609)" id="g342"><path id="path344" style="fill:#e02233;fill-opacity:1;fill-rule:nonzero;stroke:none" d="m 0,0 v 0 c -40.694,-39.774 -122.086,-32.926 -151.587,0 h -16.857 c 22.257,-23.575 54.26,-32.53 81.127,-33.716 2.766,-0.132 5.532,-0.132 8.166,-0.132 17.383,0.264 36.744,4.084 53.602,13.039 C -15.935,-15.804 -7.112,-8.956 0,0"/></g><g transform="translate(971.3775,183.6609)" id="g346"><path id="path348" style="fill:#44a4d4;fill-opacity:1;fill-rule:nonzero;stroke:none" d="M 0,0 C 0,-0.132 0,-0.132 0,0 -0.659,-0.527 -1.317,-0.922 -1.843,-1.317 -46.227,-30.95 -107.863,-25.154 -134.334,0 h -17.253 C -122.086,-32.926 -40.694,-39.905 0,0"/></g><g transform="translate(961.6323,179.4463)" id="g350"><path id="path352" style="fill:#ffffff;fill-opacity:1;fill-rule:nonzero;stroke:none" d="m 0,0 c -20.15,-7.77 -39.115,-11.195 -55.709,-11.326 -23.18,-0.132 -41.486,6.059 -51.233,15.541 h -14.617 -3.029 C -98.249,-20.677 -37.272,-26.603 6.98,2.371 7.243,2.503 7.638,2.766 7.902,3.029 8.56,3.425 9.087,3.82 9.746,4.215 6.454,2.634 3.16,1.317 0,0"/></g><g transform="translate(854.6909,183.7926)" id="g354"><path id="path356" style="fill:#c4c6c0;fill-opacity:1;fill-rule:nonzero;stroke:none" d="m 0,0 h -14.618 -3.03 -17.252 -16.857 c -0.132,0 -0.132,0 -0.264,-0.132 v -0.263 c 10.535,-10.931 23.574,-19.492 38.982,-25.286 12.907,-4.874 27.658,-7.771 42.278,-8.43 2.107,-0.132 4.082,-0.132 6.189,-0.132 h 1.975 c 9.219,0.132 18.307,1.186 26.999,3.293 9.614,2.239 18.57,5.532 26.603,9.746 10.273,5.532 18.965,12.512 25.681,20.941 V -0.132 0 0.132 h -0.13 -0.132 C 113.262,-1.317 109.97,-2.766 106.677,-3.952 87.977,-11.195 68.749,-15.146 51.1,-15.277 H 50.179 C 28.447,-15.277 10.273,-9.614 0.133,0.132 0.133,0 0.133,0 0,0 m 116.686,-0.132 v 0 M 0,-0.132 C 9.614,-9.351 27.526,-15.54 50.31,-15.54 h 0.922 c 16.594,0.132 35.558,3.555 55.71,11.325 3.16,1.317 6.453,2.634 9.744,4.083 -7.11,-8.824 -15.935,-15.672 -25.681,-20.809 -16.858,-8.955 -36.217,-12.775 -53.602,-13.038 h -1.975 c -1.976,0 -4.082,0 -6.189,0.131 -26.868,1.186 -58.74,10.141 -81.128,33.716 h 16.725 17.253 3.029 H 0"/></g></g></g></g></svg>