<svg width="298" height="120" viewBox="0 0 298 120" fill="none" xmlns="http://www.w3.org/2000/svg">
<path d="M0.2 116V113.92L3.4 113.44C4.36 91.36 4.84 77.44 5 64.16L1.16 60.48L5 56.8C4.84 43.36 4.52 29.28 3.4 6.87999L0.2 6.39999V3.99999H42.76V6.39999L39.4 6.87999C38.28 28.32 37.64 42.72 37.64 56.48L41.8 60.48L37.64 64.64C37.64 78.08 38.28 92.32 39.4 113.44L42.76 113.92V116H23.08V113.92L26.6 113.44C27.56 92.48 28.04 78.24 28.04 64.8L23.72 60.48L28.2 56.16C28.04 42.56 27.56 28.16 26.76 6.87999H16.36C15.24 28.16 14.6 42.4 14.44 56L18.92 60.48L14.44 64.96C14.6 78.4 15.24 92.64 16.36 113.6L18.92 113.92V116H0.2ZM78.8663 119.2H76.1463V116H49.7463V113.92L52.9463 113.6C54.0663 90.24 54.7063 75.04 54.7063 60C54.7063 44.96 54.0663 29.92 52.9463 6.56L49.1063 6.07999V3.99999H76.1463V0.799995H78.8663V3.99999H106.066V6.07999L102.546 6.56C101.586 29.92 101.106 44.96 101.106 60C101.106 75.04 101.586 90.08 102.546 113.44L106.066 113.92V116H78.8663V119.2ZM78.8663 65.28V113.44H90.0663C91.1863 90.08 91.8263 75.04 91.8263 60C91.8263 44.96 91.1863 29.92 90.0663 6.56H78.8663V48.48L87.3463 56.8L78.8663 65.28ZM76.3063 48.32L76.1463 6.56H65.4263C64.4663 29.92 63.9863 44.96 63.9863 60C63.9863 75.04 64.4663 90.08 65.4263 113.44H76.1463V65.44L67.6663 56.8L76.3063 48.32ZM112.544 116V114.24L115.904 113.76C116.544 108.16 117.024 101.44 117.024 94.56L112.864 90.56L117.024 86.56C116.864 78.4 116.384 70.08 115.584 62.88C127.264 60.64 134.464 56.32 134.464 56.32C134.464 56.32 128.864 53.12 115.904 49.76C117.024 42.56 117.504 35.04 117.504 27.36L113.984 23.68L117.344 20.32C117.184 16.16 116.704 12 116.224 6.39999L113.024 6.07999V3.99999H154.464V6.07999L150.304 6.56C149.504 12 149.024 16.8 149.024 22.24C149.024 27.2 149.344 32.48 149.984 39.2L153.344 40.16L152.704 41.92L137.984 40.16C138.944 30.88 139.264 26.08 139.264 21.28C139.264 16.16 138.944 11.2 138.304 6.56H129.024C128.384 12.64 128.064 16.32 127.904 19.84L131.904 23.68L127.744 27.84C127.744 34.08 128.064 40.16 128.704 46.24C132.224 47.36 136.384 48.48 141.344 49.44C141.024 51.36 141.024 53.76 141.024 56.32C141.024 58.88 141.024 61.44 141.344 63.36C136.224 63.84 131.744 65.44 128.224 67.2C127.584 73.44 127.264 80.16 127.104 86.88L130.784 90.56L127.104 94.08C127.264 99.52 127.584 108.48 128.544 113.76H138.464C139.424 108.32 139.904 101.44 139.904 94.4C139.904 88.16 139.424 81.76 138.144 72.16L153.344 70.08L153.824 72L150.464 72.96C149.824 80 149.504 86.72 149.504 93.12C149.504 100.64 149.984 107.52 150.944 113.76L154.464 114.24V116H112.544ZM160.044 116V113.76L163.404 113.44C164.204 106.56 164.684 97.92 164.684 89.28L160.524 84.96L164.684 80.8C164.364 73.28 163.884 66.08 163.084 59.84C170.604 57.6 174.284 56 176.684 53.12C173.484 49.44 169.004 48 163.084 47.2C164.204 40.32 164.684 33.92 164.844 27.52L160.844 23.52L164.684 19.68C164.524 15.52 164.044 11.04 163.564 6.23999L160.204 5.76V3.99999H176.364C175.564 9.6 175.084 14.72 174.924 19.52L178.924 23.52L174.764 27.68C174.924 33.6 175.244 39.52 176.044 45.76C177.644 46.72 179.404 47.68 181.324 48.32C183.244 47.68 185.004 46.88 186.444 45.92C187.564 39.52 188.044 33.6 188.204 27.68L184.204 23.52L188.044 19.52C187.724 15.36 187.404 11.04 186.604 6.23999L183.084 5.76V3.99999H202.604V5.76L199.084 6.23999C198.604 11.04 198.284 15.52 198.124 19.84L201.804 23.52L197.964 27.36C197.964 30.24 198.604 44.48 199.564 47.36C193.804 48 189.164 49.76 185.964 53.12C188.844 56.16 192.204 57.6 199.564 59.84C198.764 66.08 198.284 73.44 198.124 80.96L202.284 84.96L197.964 89.12C197.964 97.92 198.444 106.4 199.244 113.44L202.764 113.76V116H186.604C187.884 105.12 188.204 96.96 188.204 88.8L184.684 84.96L188.204 81.28C188.044 74.56 187.564 67.84 186.764 62.08C185.324 60.96 183.564 60.16 181.484 59.52C179.244 60.16 177.484 60.96 175.884 62.08C175.244 67.84 174.764 74.56 174.604 81.28L178.284 84.96L174.444 88.64C174.444 96.96 174.764 105.12 175.884 113.28L179.884 113.76V116H160.044ZM211.506 78.88C226.706 76.16 232.946 72.32 235.186 70.56C235.346 67.36 235.346 64.16 235.346 60.96L231.026 56.64L235.186 52.32C235.026 39.68 234.546 25.92 233.746 6.56H225.586C224.786 14.08 224.466 22.56 224.466 31.52L228.946 35.84L224.626 40.16C224.786 48.16 225.266 56.32 225.906 63.84L211.666 66.4L211.346 64.32L213.426 63.68C214.546 57.12 215.186 48.64 215.346 40L211.346 35.84L215.346 31.84C215.186 22.24 214.546 13.12 213.746 6.56L210.866 6.07999V3.99999H249.586V6.07999L246.226 6.56C245.266 26.08 244.626 39.84 244.466 52.48L248.626 56.64L244.466 60.8C244.466 75.68 244.946 90.56 246.226 113.44L249.586 113.92V116H208.306V113.92L212.626 113.44C213.266 110.88 213.746 107.84 213.906 104.48L209.426 100L213.746 95.68C213.426 88.48 212.466 81.76 211.506 78.88ZM227.026 100L223.026 104C223.186 107.84 223.666 111.2 224.306 113.44H233.906C234.386 99.84 234.866 88.96 235.026 79.36C230.706 80.48 226.546 82.4 223.346 84.32C223.026 87.68 222.706 91.68 222.706 95.84L227.026 100ZM255.981 116V114.24L259.501 113.76C260.141 103.68 260.461 95.2 260.461 87.2L256.621 83.2L260.461 79.2C260.461 71.36 259.981 62.72 259.341 52.8C273.421 49.92 281.421 47.2 283.341 45.28C283.021 34.4 282.541 22.24 281.901 6.39999H273.261C272.781 9.44 272.141 14.24 271.981 18.24L275.661 21.92L272.141 25.44C272.301 28.8 272.461 32.16 273.741 40L258.221 41.92L258.061 40L261.421 39.04C261.901 34.08 262.221 29.92 262.221 26.08L258.061 21.92L262.221 17.92C262.061 14.24 261.741 10.56 261.261 6.56L257.741 6.07999V3.99999H297.741V6.07999L294.541 6.56C293.421 30.08 292.781 45.44 292.781 60.8C292.781 66.88 292.781 73.12 293.101 79.84L296.781 83.52L293.421 87.04C293.581 94.72 294.061 103.52 294.541 113.76L297.741 114.24V116H278.061V114.24L281.901 113.76L283.021 87.36L279.021 83.52L283.181 79.52C283.341 74.56 283.501 69.12 283.501 64.16C283.501 60.64 283.341 57.28 283.341 53.76C278.861 54.88 274.701 56.8 271.501 58.72C270.861 66.24 270.541 72.96 270.381 79.52L274.061 83.2L270.381 86.88C270.541 95.04 271.021 103.52 271.821 113.76L275.021 114.24V116H255.981Z" fill="#006096"/>
</svg>
